<svg xmlns="http://www.w3.org/2000/svg" width="72" height="77.413" viewBox="0 0 72 77.413">
  <g id="Grupo_11" data-name="Grupo 11" transform="translate(-1478 299)">
    <circle id="Elipse_7" data-name="Elipse 7" cx="12.5" cy="12.5" r="12.5" transform="translate(1487 -299)" fill="#377bbc"/>
    <circle id="Elipse_8" data-name="Elipse 8" cx="9.5" cy="9.5" r="9.5" transform="translate(1518 -289)" fill="#9088c4"/>
    <circle id="Elipse_9" data-name="Elipse 9" cx="4.5" cy="4.5" r="4.5" transform="translate(1478 -262)" fill="#82cec4"/>
    <circle id="Elipse_10" data-name="Elipse 10" cx="5.5" cy="5.5" r="5.5" transform="translate(1539 -262)" fill="#82cec4"/>
    <path id="Trazado_58" data-name="Trazado 58" d="M1641.029-227.4s4.769-.136,10.162,0,11.41.546,11.41.546l4.374-19.168a83.654,83.654,0,0,0-10.908-3.706c-.294-.078-15.038,13.969-15.038,13.969Z" transform="translate(-124)" fill="#82cec4"/>
    <path id="Trazado_70" data-name="Trazado 70" d="M-1553.271,411.653h0a172,172,0,0,0-1.683-22.346A185.1,185.1,0,0,0-1560,367.034l.006-.01a35.259,35.259,0,0,1,4.14-2.168,32.462,32.462,0,0,1,9.634-2.727,26.6,26.6,0,0,1,2.67-.129,47.111,47.111,0,0,1,12.8,2.078l-.246,3.017c-1.743.3-3.049.611-3.673.768l-.025.006.043.11-.017,10.719c-1.079-.03-2.143-.046-3.164-.046-2.292,0-4.42.078-6.325.232-.974.079-1.964.184-2.942.312l-.772,16.579s13.154,6.441,13.154,6.441h.013l-.013,8.066c-.5-.032-2.3-.139-4.608-.139-1.587,0-3.1.051-4.493.151a81.9,81.9,0,0,0-9.451,1.355h-.006Z" transform="translate(3047.001 -633.239)" fill="#377bbc"/>
    <path id="Trazado_71" data-name="Trazado 71" d="M-1542.138,404.26h0l-.012,0a47.551,47.551,0,0,0-6.347-.934c-.976-.069-2.071-.1-3.254-.1-1.913,0-3.451.094-3.62.1v-5.817l11.442-17.425.634-4.355c-.053-.007-5.543-.82-12.18-1.211l-.01-.026-.007-11.806a47.115,47.115,0,0,1,7.535-.665c.413,0,.823.007,1.219.022a38.63,38.63,0,0,1,11.769,2.528Z" transform="translate(3072.084 -628.925)" fill="#9088c4"/>
    <path id="Trazado_72" data-name="Trazado 72" d="M-1556.453,387.234h0l-3.547-20.2a56.72,56.72,0,0,1,16.123-4.485l.887,4.512s2.433-.378,5.035-.574c1.961-.147,6.521-.163,6.525-.163l-.067,19.244c-3.955,0-7.341.114-10.064.327-9.236.723-14.836,1.337-14.891,1.344Zm38.333-1.344h0c-.04,0-4.025-.207-9.016-.29l-.068-19.281c.391,0,3.09,0,5.844.163a50.968,50.968,0,0,1,5.828.732l.537-3.826-3.125,22.5Z" transform="translate(3043.784 -616.587)" fill="#82cec4"/>
  </g>
</svg>
