<svg xmlns="http://www.w3.org/2000/svg" width="58.699" height="58.699" viewBox="0 0 58.699 58.699">
  <path id="Trazado_54" data-name="Trazado 54" d="M-1523.042,420.7h-15.218a21.612,21.612,0,0,1-8.462-1.708,21.675,21.675,0,0,1-6.911-4.659,21.674,21.674,0,0,1-4.658-6.91,21.6,21.6,0,0,1-1.708-8.462V383.741a21.6,21.6,0,0,1,1.708-8.463,21.683,21.683,0,0,1,4.658-6.911,21.669,21.669,0,0,1,6.911-4.658A21.6,21.6,0,0,1-1538.26,362h15.218a21.6,21.6,0,0,1,8.463,1.709,21.651,21.651,0,0,1,6.91,4.658,21.657,21.657,0,0,1,4.659,6.911,21.6,21.6,0,0,1,1.709,8.463v15.218a21.6,21.6,0,0,1-1.709,8.462,21.647,21.647,0,0,1-4.659,6.91,21.669,21.669,0,0,1-6.91,4.659A21.614,21.614,0,0,1-1523.042,420.7Zm1.767-26.224v9.375h5.468a.782.782,0,0,0,.781-.781v-4.885a1.562,1.562,0,0,0-.947-1.436l-5.3-2.272Zm-9.375,1.562a3.128,3.128,0,0,1,3.125,3.125v4.688h4.687V392.234a1.571,1.571,0,0,0-.759-1.34l-5.491-3.295v-2.5h2.344a.782.782,0,0,0,.781-.781v-1.562a.782.782,0,0,0-.781-.781h-2.344v-2.344a.782.782,0,0,0-.781-.781h-1.562a.782.782,0,0,0-.781.781v2.344h-2.344a.782.782,0,0,0-.781.781v1.562a.782.782,0,0,0,.781.781h2.344v2.5l-5.492,3.295a1.571,1.571,0,0,0-.759,1.34V403.85h4.688v-4.688A3.128,3.128,0,0,1-1530.651,396.037Zm-9.375-1.562-5.3,2.272a1.562,1.562,0,0,0-.947,1.436v4.885a.782.782,0,0,0,.781.781h5.468v-9.375Z" transform="translate(1560 -362)" fill="#252525"/>
</svg>
