<?xml version="1.0" encoding="UTF-8"?>
<svg xmlns="http://www.w3.org/2000/svg" width="57.227" height="57.227" viewBox="0 0 57.227 57.227">
  <path id="Trazado_50" data-name="Trazado 50" d="M36.032,57.227H21.195A21.177,21.177,0,0,1,0,36.032V21.195A21.177,21.177,0,0,1,21.195,0H36.032A21.177,21.177,0,0,1,57.227,21.195V36.032A21.177,21.177,0,0,1,36.032,57.227ZM21.566,25.875v4.6h4.043V41.606h4.976V30.478H34.3l.706-4.6H30.585V22.888A2.3,2.3,0,0,1,33.18,20.4h2.008V16.483a24.875,24.875,0,0,0-3.564-.311c-3.767,0-6.015,2.316-6.015,6.2v3.508Z" fill="#252525"/>
</svg>
