<svg xmlns="http://www.w3.org/2000/svg" width="58.698" height="58.698" viewBox="0 0 58.698 58.698">
  <path id="Trazado_49" data-name="Trazado 49" d="M36.959,58.7H21.74A21.722,21.722,0,0,1,0,36.959V21.74A21.722,21.722,0,0,1,21.74,0H36.959A21.722,21.722,0,0,1,58.7,21.74V36.959A21.722,21.722,0,0,1,36.959,58.7Zm-7.51-38.85c-.087,0-8.727.007-10.872.585a3.5,3.5,0,0,0-2.461,2.476,36.9,36.9,0,0,0-.581,6.741,36.9,36.9,0,0,0,.581,6.741,3.425,3.425,0,0,0,2.461,2.437c2.145.579,10.785.586,10.872.586s8.727-.007,10.872-.586a3.425,3.425,0,0,0,2.46-2.437,36.861,36.861,0,0,0,.582-6.741,36.861,36.861,0,0,0-.582-6.741,3.5,3.5,0,0,0-2.46-2.476C38.175,19.855,29.535,19.849,29.448,19.849ZM26.6,33.789h0V25.514l7.273,4.138L26.6,33.788Z" fill="#252525"/>
</svg>
